<svg width="197" height="40" viewBox="0 0 197 40" fill="none" xmlns="http://www.w3.org/2000/svg">
<mask id="mask0_885_14899" style="mask-type:alpha" maskUnits="userSpaceOnUse" x="0" y="0" width="197" height="40">
<rect width="197" height="40" fill="#C4C4C4"/>
</mask>
<g mask="url(#mask0_885_14899)">
<path d="M61.074 20.2832C64.2539 20.2832 66.8543 22.679 67 25.7407L66.9842 25.7375C67.0697 27.5949 66.7339 31.179 63.4906 34.3139C61.2513 36.4835 58.0967 37.9904 54.0584 38.8379C51.5024 39.37 45.437 39.4528 42.181 39.4528H39.3431C39.9418 39.1628 41.4526 37.9617 42.8715 36.028C45.8963 35.9961 51.5689 35.8144 53.8684 35.2761C56.9153 34.5656 59.294 33.4186 60.9124 31.8512C63.1739 29.6657 63.4083 27.1839 63.3481 25.9C63.2943 24.7116 62.2871 23.7813 61.0581 23.7813H56.6176C56.1362 23.7813 55.6706 23.5966 55.3285 23.2652C54.9864 22.9339 54.7964 22.4879 54.7996 22.0196C54.8217 19.2956 53.9602 17.2407 52.1675 15.7433C49.7572 13.7266 46.1623 13.0608 42.9729 12.9302C42.4458 12.9093 41.3011 12.8818 40.4628 12.8616C40.0164 12.8508 39.6568 12.8422 39.5237 12.8378C40.6386 13.7171 41.4019 15.0138 41.6426 16.6258C41.8044 17.7056 41.8011 18.8132 41.798 19.885L41.7978 19.9423V20.4043C41.7978 21.5162 41.1517 22.1406 39.9798 22.1661C39.1404 22.182 38.0097 22.0259 37.8988 20.4903C37.8758 20.1603 37.8789 19.8303 37.8821 19.498L37.883 19.3975L37.884 19.3003C37.8871 19.0072 37.8903 18.712 37.8703 18.4195C37.8418 17.9416 37.788 17.3872 37.6328 16.8902C37.4491 16.3008 37.0088 15.5967 35.9478 15.5617C35.498 15.5458 33.718 15.4979 33.718 15.4979C31.7923 15.4979 30.0123 16.2211 28.7042 17.537C27.4499 18.7986 26.8038 20.452 26.8893 22.1947V33.0682C26.8893 33.0682 26.8481 33.8551 26.8893 34.2406C26.9337 34.6261 27.1712 35.1455 27.3707 35.3844C27.7255 35.8113 28.2481 36.0438 28.9259 36.063C29.1539 36.0693 29.4168 36.0757 29.705 36.0821V36.0885H30.9308C32.8375 36.0885 34.6777 35.3366 35.9826 34.024C37.2527 32.7465 37.9052 31.0802 37.8197 29.3312V28.197H34.513C33.8986 28.197 33.2144 28.1365 32.7805 27.7C32.3434 27.2603 32.3149 26.5881 32.3434 25.9924C32.4004 24.8486 33.0497 24.2369 34.2216 24.2369C36.0048 24.2305 37.7943 24.2274 39.5807 24.2369C40.8666 24.2433 41.6363 24.8518 41.782 25.9541L41.8231 28.1715C41.8252 28.4464 41.8287 28.7186 41.8308 28.9917C41.8319 29.1332 41.8326 29.2748 41.8326 29.4172H41.8295C41.8865 32.1316 40.8476 34.6994 38.8807 36.681C37.4903 38.0829 35.7134 39.3158 33.7814 39.8128C32.8565 40.0517 28.7549 40.0103 28.2544 39.9657C25.7998 39.7523 24.0229 38.3919 23.2659 36.2318C23.1202 35.8144 22.9397 35.0912 22.9397 34.5337C22.9397 33.9762 22.8257 22.3254 22.8257 22.3254C22.7085 19.525 23.7505 16.8647 25.7681 14.8353C26.8861 13.7107 28.2576 12.8473 29.7589 12.2962C30.3733 12.0699 31.4914 11.8151 32.4986 11.6749C33.3696 11.5538 34.1678 11.5379 34.323 11.5411C30.8864 7.83583 27.2599 5.14383 25.5052 3.93636C23.9501 5.69499 23.2469 9.52437 23.1456 11.3722C23.0981 12.2101 22.4424 12.8983 21.5778 13.013C19.0756 13.3475 11.984 14.7238 9.27596 17.0463C6.76112 19.2032 6.35888 24.1126 6.41589 25.8235C6.44123 26.534 6.01364 27.1903 5.33901 27.4802C5.00327 27.6299 3.27393 28.506 3.71735 30.2041C4.40466 32.8421 7.01134 34.2056 9.9696 34.8842C12.7537 35.5246 18.2426 35.9706 20.3298 35.8877C20.6086 37.1271 21.1027 38.4396 22.132 39.2839C21.941 39.3075 20.8568 39.296 19.5102 39.2817C18.4902 39.2709 17.3196 39.2584 16.2725 39.2584C10.7298 39.2584 1.97534 37.9012 0.188985 31.0547C-0.590173 28.06 1.18984 25.9509 2.7925 24.8709C2.88118 22.6057 3.46397 17.3394 6.85932 14.4307C10.0963 11.6558 16.6748 10.2699 19.652 9.7665C19.9814 7.2114 21.0646 2.11396 24.5107 0.227927C25.0998 -0.0906631 25.8188 -0.0747958 26.3889 0.272573C26.7024 0.463759 32.3149 3.93947 37.4586 9.63591C41.7091 9.17397 49.6432 8.98916 54.5683 13.1053C56.7538 14.9309 58.027 17.3426 58.3628 20.2832H61.074Z" fill="#FFCF0F"/>
<path d="M11.6261 22.4975C11.6261 23.6571 12.6016 24.597 13.8084 24.597C15.0151 24.597 15.9906 23.6603 15.9906 22.4975C15.9906 21.3346 15.0151 20.398 13.8084 20.398C12.6016 20.398 11.6261 21.3378 11.6261 22.4975Z" fill="#FFCF0F"/>
<path d="M51.1793 22.4975C51.1793 21.3378 50.2038 20.398 48.9971 20.398C47.7903 20.398 46.8148 21.3378 46.8148 22.4975C46.8148 23.6571 47.7903 24.597 48.9971 24.597C50.2038 24.597 51.1793 23.6603 51.1793 22.4975Z" fill="#FFCF0F"/>
<path d="M192.212 32.5751V28.9589C192.212 28.4244 192.126 28.0739 191.952 27.9108C191.781 27.7476 191.436 27.6644 190.92 27.6644H188.727C186.059 27.6644 184.727 26.356 184.727 23.7357V19.1373C184.727 16.4859 186.059 15.1636 188.727 15.1636H191.867C194.562 15.1636 195.911 16.4893 195.911 19.1373V21.237H192.126V19.5399C192.126 19.0055 192.041 18.6549 191.867 18.4918C191.696 18.3287 191.351 18.2454 190.835 18.2454H189.803C189.288 18.2454 188.943 18.3252 188.772 18.4918C188.601 18.6549 188.512 19.0055 188.512 19.5399V23.2915C188.512 23.826 188.597 24.1765 188.772 24.3396C188.946 24.5027 189.288 24.586 189.803 24.586H192.041C194.681 24.586 196 25.9117 196 28.5597V33.0263C196 35.6465 194.668 36.9549 192 36.9549H188.816C186.148 36.9549 184.816 35.6465 184.816 33.0263V30.885H188.601V32.5821C188.601 33.1165 188.686 33.467 188.861 33.6301C189.035 33.7933 189.376 33.8765 189.892 33.8765H190.924C191.44 33.8765 191.785 33.7967 191.955 33.6301C192.126 33.467 192.215 33.1165 192.215 32.5821L192.212 32.5751ZM182.876 18.4189H179.993V32.2176C179.993 32.7521 180.071 33.1026 180.228 33.2657C180.385 33.4289 180.724 33.5121 181.239 33.5121H182.872V36.9514H180.119C177.424 36.9514 176.074 35.643 176.074 33.0228V18.4224H174.097V15.1636H176.074V11.4571H179.989V15.1636H182.872V18.4224L182.876 18.4189ZM163.989 24.3604H168.634V19.6267C168.634 19.12 168.556 18.7799 168.399 18.5994C168.241 18.4189 167.903 18.3322 167.387 18.3322H165.28C164.764 18.3322 164.419 18.4224 164.248 18.5994C164.077 18.7764 163.989 19.12 163.989 19.6267V24.3604ZM164.204 15.1636H168.419C171.114 15.1636 172.464 16.4893 172.464 19.1373V27.3104H163.989V32.4918C163.989 32.9985 164.074 33.3386 164.248 33.5191C164.422 33.6996 164.764 33.7863 165.28 33.7863H167.258C167.773 33.7863 168.119 33.6961 168.289 33.5191C168.46 33.3421 168.549 32.9846 168.549 32.4467V30.6594H172.334V33.0263C172.334 35.6465 171.002 36.9549 168.334 36.9549H164.204C161.536 36.9549 160.204 35.6465 160.204 33.0263V19.1373C160.204 16.4859 161.536 15.1636 164.204 15.1636ZM154.181 9H158.181L153.32 36.9514H147.814L142.953 9H146.953L150.526 33.2449L154.181 9ZM134.047 33.6926H135.554C136.07 33.6926 136.435 33.5746 136.65 33.3352C136.865 33.0957 136.971 32.6966 136.971 32.1309V19.939C136.971 19.3733 136.865 18.9707 136.65 18.7348C136.435 18.4988 136.07 18.3773 135.554 18.3773H134.047C133.531 18.3773 133.186 18.4675 133.016 18.6445C132.845 18.8215 132.756 19.1651 132.756 19.6718V32.3981C132.756 32.9326 132.841 33.2831 133.016 33.4462C133.19 33.6093 133.531 33.6926 134.047 33.6926ZM136.982 11.4745H140.855L140.845 36.9514H136.971V35.2092C136.599 36.3684 135.711 36.9514 134.303 36.9514H132.756C130.177 36.9514 128.882 35.643 128.882 33.0228V19.0922C128.882 16.4407 130.173 15.1185 132.756 15.1185H134.303C135.707 15.1185 136.599 15.6981 136.971 16.8607L136.982 11.4779V11.4745ZM121.743 32.4432V19.6718C121.743 19.1373 121.657 18.7799 121.483 18.5994C121.309 18.4189 120.967 18.3322 120.452 18.3322H118.084C117.568 18.3322 117.23 18.4224 117.073 18.5994C116.916 18.7764 116.837 19.1339 116.837 19.6718V32.4432C116.837 32.9777 116.916 33.3351 117.073 33.5156C117.23 33.6926 117.568 33.7828 118.084 33.7828H120.452C120.967 33.7828 121.312 33.6926 121.483 33.5156C121.654 33.3386 121.743 32.9812 121.743 32.4432ZM116.967 15.1636H121.572C124.24 15.1636 125.572 16.4893 125.572 19.1373V33.0263C125.572 35.6465 124.24 36.9549 121.572 36.9549H116.967C114.327 36.9549 113.008 35.6465 113.008 33.0263V19.1373C113.008 16.4859 114.327 15.1636 116.967 15.1636ZM105.824 32.4432V19.6718C105.824 19.1373 105.739 18.7799 105.565 18.5994C105.39 18.4189 105.049 18.3322 104.533 18.3322H102.166C101.65 18.3322 101.312 18.4224 101.154 18.5994C100.997 18.7764 100.919 19.1339 100.919 19.6718V32.4432C100.919 32.9777 100.997 33.3351 101.154 33.5156C101.312 33.6926 101.65 33.7828 102.166 33.7828H104.533C105.049 33.7828 105.394 33.6926 105.565 33.5156C105.735 33.3386 105.824 32.9812 105.824 32.4432ZM101.049 15.1636H105.653C108.321 15.1636 109.653 16.4893 109.653 19.1373V33.0263C109.653 35.6465 108.321 36.9549 105.653 36.9549H101.049C98.408 36.9549 97.0894 35.6465 97.0894 33.0263V19.1373C97.0894 16.4859 98.408 15.1636 101.049 15.1636ZM93.6051 17.173H89.6903V13.4665C89.6903 12.9321 89.6049 12.5816 89.4307 12.4184C89.2599 12.2553 88.9149 12.172 88.3991 12.172H86.206C85.6902 12.172 85.3452 12.2519 85.1744 12.4184C85.0036 12.5816 84.9147 12.9321 84.9147 13.4665V32.5335C84.9147 33.0679 85.0001 33.4184 85.1744 33.5816C85.3486 33.7447 85.6902 33.828 86.206 33.828H88.3991C88.9149 33.828 89.2599 33.7481 89.4307 33.5816C89.6015 33.4184 89.6903 33.0679 89.6903 32.5335V25.7H87.5382V22.5766H93.6051V33.0263C93.6051 35.6777 92.2728 37 89.6049 37H85.0001C82.3322 37 81 35.6743 81 33.0263V12.9321C81 10.3118 82.3322 9.00347 85.0001 9.00347H89.6049C92.2728 9.00347 93.6051 10.3118 93.6051 12.9321V17.1765V17.173Z" fill="#FFCF0F"/>
</g>
</svg>
